<svg width="145" height="145" viewBox="0 0 145 145" fill="none" xmlns="http://www.w3.org/2000/svg">
<path fill-rule="evenodd" clip-rule="evenodd" d="M30.9971 10.0141C4.29684 18.185 -5.22325 45.7988 2.92273 69.9582C16.0261 108.7 72.2205 137.749 72.2205 137.749C72.2205 137.749 128.832 108.253 141.511 69.9582C149.649 45.7988 140.068 18.185 113.368 10.0141C99.3383 5.73753 83.2665 8.478 72.2205 16.5912C60.5443 8.24722 45.0419 5.70868 30.9971 10.0141ZM99.3039 31.5542C96.4103 30.8136 93.4641 32.559 92.7235 35.4526C91.9829 38.3463 93.7283 41.2924 96.622 42.0331C106.591 44.5846 112.502 51.2809 113.186 57.9485C113.491 60.9199 116.147 63.0816 119.118 62.7768C122.089 62.4721 124.251 59.8163 123.946 56.8449C122.674 44.4406 112.334 34.8892 99.3039 31.5542Z" fill="#FF0000"/>
</svg>
