<svg width="145" height="145" viewBox="0 0 145 145" fill="none" xmlns="http://www.w3.org/2000/svg">
<path fill-rule="evenodd" clip-rule="evenodd" d="M30.9991 9.46332C4.29879 17.6342 -5.22129 45.2481 2.92468 69.4075C16.0281 108.149 72.2224 137.198 72.2224 137.198C72.2224 137.198 128.834 107.702 141.513 69.4075C149.651 45.2481 140.07 17.6342 113.37 9.46332C99.3402 5.18675 83.2685 7.92722 72.2224 16.0404C60.5463 7.69644 45.0439 5.1579 30.9991 9.46332ZM99.3133 31.0035C96.4197 30.2629 93.4735 32.0083 92.7329 34.902C91.9923 37.7956 93.7377 40.7418 96.6314 41.4824C106.601 44.0339 112.512 50.7302 113.195 57.3978C113.5 60.3692 116.156 62.5309 119.127 62.2261C122.099 61.9214 124.26 59.2656 123.956 56.2943C122.683 43.89 112.344 34.3385 99.3133 31.0035Z" fill="#C5D0E6"/>
</svg>
