<svg width="246" height="195" viewBox="0 0 246 195" fill="none" xmlns="http://www.w3.org/2000/svg">
<path d="M94.5414 175.23C94.1197 176.325 93.698 177.378 93.2763 178.388C92.9389 179.399 92.475 180.326 91.8846 181.168C91.2942 182.01 90.5351 182.768 89.6074 183.442C88.7639 184.116 87.6675 184.663 86.318 185.085C81.0044 186.769 75.7329 188.201 70.5037 189.38C65.2744 190.644 60.0029 192.16 54.6893 193.929C53.6772 194.266 52.7916 194.518 52.0325 194.687C51.2734 194.855 50.5565 194.94 49.8818 194.94C48.3636 194.94 47.2671 194.561 46.5924 193.803C45.9176 193.044 45.4116 192.076 45.0742 190.897L1.80619 19.0658C1.13145 16.8758 0.794075 15.0648 0.794075 13.6329C0.794075 11.7798 1.38448 10.2637 2.56528 9.08446C3.74608 7.821 5.6438 6.81023 8.25844 6.05216C10.9574 5.20985 14.3733 4.45177 18.5061 3.77793C22.7233 3.10408 27.8682 2.346 33.9409 1.5037C36.8929 1.08254 39.381 0.787734 41.4053 0.619273C43.4295 0.366581 45.1586 0.240234 46.5924 0.240234C49.0383 0.240234 50.6409 0.661388 51.3999 1.5037C52.2434 2.26177 53.0025 3.48312 53.6772 5.16773L77.8415 109.53L111.874 13.6329C112.38 12.2852 112.802 11.1902 113.139 10.3479C113.561 9.50562 114.278 8.78966 115.29 8.20004C116.386 7.52619 117.989 6.89446 120.097 6.30485C122.29 5.631 125.411 4.87293 129.459 4.03062C135.785 2.68293 141.014 1.71427 145.147 1.12466C149.28 0.535042 152.612 0.240234 155.142 0.240234C158.347 0.240234 160.413 0.619273 161.341 1.37735C162.353 2.13543 162.859 3.23043 162.859 4.66235C162.944 5.25196 162.817 5.88369 162.48 6.55754C162.227 7.14716 161.932 7.90523 161.594 8.83177L94.5414 175.23Z" fill="#FF6934"/>
<path d="M94.28 100.938C94.28 91.6727 95.3764 82.7864 97.5694 74.2791C99.8466 65.6875 103.052 57.6856 107.184 50.2733C111.317 42.861 116.294 36.1225 122.113 30.0579C128.017 23.9933 134.596 18.8131 141.849 14.5173C149.103 10.1373 156.947 6.76812 165.381 4.40966C173.9 2.0512 182.84 0.871965 192.202 0.871965C199.625 0.871965 206.119 1.37735 211.686 2.38812C217.337 3.31466 222.228 4.536 226.361 6.05216C230.578 7.48408 234.079 9.08446 236.862 10.8533C239.73 12.6222 242.091 14.3068 243.947 15.9072C243.862 15.9072 243.82 16.202 243.82 16.7916C243.82 18.055 243.905 20.3714 244.073 23.7406C244.326 27.1098 244.579 30.8581 244.832 34.9854C245.17 39.1127 245.423 43.3243 245.591 47.62C245.845 51.8316 245.971 55.4956 245.971 58.6121C245.971 59.1175 245.802 59.7071 245.465 60.381C245.128 60.9706 244.284 61.2654 242.935 61.2654C242.176 61.2654 241.248 61.1391 240.151 60.8864C238.38 60.381 236.145 59.2439 233.446 57.475C230.747 55.622 227.584 53.7268 223.957 51.7895C220.415 49.7679 216.409 47.9991 211.939 46.4829C207.553 44.8825 202.745 44.0823 197.516 44.0823C190.6 44.0823 184.316 45.4721 178.665 48.2518C173.014 50.9471 168.207 54.6954 164.243 59.4966C160.278 64.2977 157.2 70.0254 155.007 76.6796C152.814 83.2496 151.718 90.4514 151.718 98.2848C151.718 105.192 152.477 111.804 153.995 118.121C155.513 124.354 157.79 129.829 160.827 134.546C163.947 139.263 167.785 143.053 172.34 145.917C176.978 148.697 182.334 150.087 188.407 150.087C193.214 150.087 197.474 149.918 201.185 149.581C204.896 149.244 208.354 148.697 211.559 147.939C214.764 147.181 217.885 146.17 220.921 144.907C224.042 143.643 227.373 142.043 230.916 140.105C231.084 140.021 231.506 139.979 232.181 139.979C232.771 139.979 233.151 140.232 233.32 140.737C233.573 141.158 233.699 142.085 233.699 143.517V158.678C233.699 161.458 233.657 164.195 233.573 166.891C233.573 169.502 233.53 171.86 233.446 173.966C233.446 176.072 233.404 177.799 233.32 179.146C233.32 180.41 233.277 181.042 233.193 181.042C229.313 183.484 225.138 185.464 220.668 186.98C216.282 188.58 211.728 189.802 207.005 190.644C202.366 191.57 197.685 192.16 192.961 192.413C188.238 192.75 183.684 192.918 179.298 192.918C167.405 192.918 156.272 190.686 145.898 186.222C135.524 181.673 126.499 175.356 118.824 167.27C111.233 159.184 105.245 149.497 100.859 138.21C96.4729 126.923 94.28 114.499 94.28 100.938Z" fill="#FF6934"/>
</svg>
