<svg width="246" height="195" viewBox="0 0 246 195" fill="none" xmlns="http://www.w3.org/2000/svg">
<path d="M94.2387 175.238C93.817 176.333 93.3952 177.386 92.9735 178.397C92.6362 179.408 92.1723 180.334 91.5819 181.177C90.9915 182.019 90.2324 182.777 89.3046 183.451C88.4612 184.125 87.3647 184.672 86.0152 185.093C80.7016 186.778 75.4302 188.21 70.2009 189.389C64.9716 190.653 59.7002 192.169 54.3866 193.938C53.3744 194.275 52.4888 194.527 51.7298 194.696C50.9707 194.864 50.2538 194.948 49.579 194.948C48.0608 194.948 46.9644 194.569 46.2896 193.811C45.6149 193.053 45.1088 192.085 44.7714 190.905L1.50344 19.0746C0.82869 16.8846 0.491318 15.0736 0.491318 13.6417C0.491318 11.7886 1.08172 10.2725 2.26252 9.09325C3.44333 7.82979 5.34105 6.81902 7.95568 6.06095C10.6547 5.21864 14.0706 4.46056 18.2034 3.78671C22.4205 3.11287 27.5655 2.35479 33.6382 1.51248C36.5902 1.09133 39.0783 0.796523 41.1025 0.628062C43.1268 0.37537 44.8558 0.249023 46.2896 0.249023C48.7356 0.249023 50.3381 0.670177 51.0972 1.51248C51.9406 2.27056 52.6997 3.49191 53.3744 5.17652L77.5387 109.538L111.571 13.6417C112.077 12.294 112.499 11.199 112.836 10.3567C113.258 9.51441 113.975 8.79844 114.987 8.20883C116.084 7.53498 117.686 6.90325 119.795 6.31364C121.988 5.63979 125.108 4.88171 129.157 4.03941C135.482 2.69172 140.712 1.72306 144.845 1.13345C148.977 0.543831 152.309 0.249023 154.839 0.249023C158.044 0.249023 160.111 0.628062 161.038 1.38614C162.051 2.14422 162.557 3.23922 162.557 4.67114C162.641 5.26075 162.514 5.89248 162.177 6.56633C161.924 7.15595 161.629 7.91402 161.291 8.84056L94.2387 175.238Z" fill="white"/>
<path d="M93.9772 100.947C93.9772 91.6815 95.0737 82.7952 97.2666 74.2879C99.5439 65.6963 102.749 57.6944 106.882 50.2821C111.015 42.8698 115.991 36.1313 121.81 30.0667C127.714 24.0021 134.293 18.8219 141.547 14.5261C148.8 10.1461 156.644 6.77691 165.078 4.41845C173.597 2.05998 182.537 0.880754 191.9 0.880754C199.322 0.880754 205.816 1.38614 211.383 2.39691C217.034 3.32345 221.926 4.54479 226.059 6.06095C230.276 7.49287 233.776 9.09325 236.559 10.8621C239.427 12.6309 241.789 14.3156 243.644 15.9159C243.56 15.9159 243.518 16.2108 243.518 16.8004C243.518 18.0638 243.602 20.3802 243.771 23.7494C244.024 27.1186 244.277 30.8669 244.53 34.9942C244.867 39.1215 245.12 43.3331 245.289 47.6288C245.542 51.8404 245.668 55.5044 245.668 58.6209C245.668 59.1263 245.5 59.7159 245.162 60.3898C244.825 60.9794 243.981 61.2742 242.632 61.2742C241.873 61.2742 240.945 61.1479 239.849 60.8952C238.077 60.3898 235.842 59.2527 233.143 57.4838C230.444 55.6307 227.281 53.7356 223.655 51.7982C220.112 49.7767 216.106 48.0079 211.636 46.4917C207.25 44.8913 202.442 44.0911 197.213 44.0911C190.297 44.0911 184.013 45.4809 178.362 48.2606C172.712 50.9559 167.904 54.7042 163.94 59.5054C159.976 64.3065 156.897 70.0342 154.704 76.6884C152.511 83.2584 151.415 90.4602 151.415 98.2936C151.415 105.201 152.174 111.813 153.692 118.13C155.21 124.363 157.488 129.838 160.524 134.555C163.645 139.272 167.482 143.062 172.037 145.926C176.676 148.706 182.031 150.096 188.104 150.096C192.912 150.096 197.171 149.927 200.882 149.59C204.593 149.253 208.051 148.706 211.256 147.948C214.461 147.19 217.582 146.179 220.618 144.915C223.739 143.652 227.071 142.051 230.613 140.114C230.782 140.03 231.203 139.988 231.878 139.988C232.469 139.988 232.848 140.241 233.017 140.746C233.27 141.167 233.396 142.094 233.396 143.526V158.687C233.396 161.467 233.354 164.204 233.27 166.9C233.27 169.511 233.228 171.869 233.143 173.975C233.143 176.081 233.101 177.807 233.017 179.155C233.017 180.419 232.975 181.05 232.89 181.05C229.011 183.493 224.836 185.472 220.365 186.989C215.98 188.589 211.425 189.81 206.702 190.653C202.063 191.579 197.382 192.169 192.659 192.421C187.935 192.758 183.381 192.927 178.995 192.927C167.103 192.927 155.969 190.695 145.595 186.231C135.221 181.682 126.196 175.365 118.521 167.279C110.93 159.192 104.942 149.506 100.556 138.219C96.1701 126.932 93.9772 114.508 93.9772 100.947Z" fill="white"/>
</svg>
